<?xml version="1.0" standalone="no"?>
<!DOCTYPE svg PUBLIC "-//W3C//DTD SVG 20010904//EN"
 "http://www.w3.org/TR/2001/REC-SVG-20010904/DTD/svg10.dtd">
<svg version="1.0" xmlns="http://www.w3.org/2000/svg"
 width="300.000000pt" height="200.000000pt" viewBox="0 0 300.000000 200.000000"
 preserveAspectRatio="xMidYMid meet">
<metadata>
Created by potrace 1.10, written by Peter Selinger 2001-2011
</metadata>
<g transform="translate(0.000000,200.000000) scale(0.100000,-0.100000)"
fill="#000000" stroke="none">
<path d="M2248 1792 c-143 -1 -218 -6 -218 -13 0 -6 6 -7 13 -3 6 4 9 3 5 -1
-12 -12 -58 -15 -58 -4 0 6 4 8 9 4 5 -3 12 -1 16 5 4 6 -14 10 -49 10 -30 0
-57 -4 -60 -9 -3 -4 5 -6 18 -4 13 3 26 1 29 -4 3 -5 -12 -10 -33 -11 -32 -2
-39 0 -34 13 5 12 -2 15 -42 13 -44 -1 -45 -2 -11 -5 20 -2 37 -8 37 -14 0 -5
-262 -9 -677 -9 -517 -1 -682 -4 -694 -13 -37 -28 -39 -50 -37 -339 l3 -283 2
238 3 237 1030 0 1030 0 0 -468 c0 -464 0 -467 -21 -480 -17 -11 -20 -21 -17
-53 3 -30 0 -38 -10 -34 -8 3 -16 5 -18 5 -2 0 -4 23 -4 50 l0 50 -41 0 c-24
0 -38 4 -34 10 3 6 21 10 40 10 l34 0 3 89 c4 124 7 120 -60 120 -31 0 -70 4
-87 10 -25 7 -14 9 58 10 l87 1 0 110 0 111 -127 -3 -128 -3 0 -105 c0 -101 1
-105 23 -108 30 -5 28 -22 -3 -22 -22 0 -25 -4 -25 -37 0 -41 9 -41 12 0 1 15
8 27 15 27 17 0 16 -11 -6 -99 -11 -40 -17 -79 -14 -87 3 -8 19 -14 38 -14 18
0 48 -3 66 -7 29 -7 25 -9 -36 -13 l-70 -5 -3 -102 -3 -103 125 0 c169 0 176
-19 9 -22 l-128 -3 0 -105 0 -105 128 -2 127 -1 0 111 0 112 26 -38 c24 -36
32 -75 37 -171 1 -29 -4 -43 -22 -57 -22 -18 -54 -19 -812 -19 -701 0 -793 2
-829 16 -32 13 -40 21 -40 41 0 24 2 25 37 18 21 -5 76 -9 123 -9 l85 -1 3
108 3 107 -98 -2 -98 -2 92 -3 93 -4 0 -94 0 -95 -94 0 -95 0 -3 110 -3 110
103 0 102 0 0 105 0 105 -119 0 -119 0 -7 30 c-4 16 -3 35 1 41 5 9 2 10 -12
4 -10 -4 -29 -9 -41 -10 -13 -1 -31 -10 -42 -19 -15 -14 -26 -16 -47 -9 l-26
9 33 26 c19 14 111 89 204 167 94 77 173 141 178 141 4 0 7 -6 7 -13 0 -18
-52 -67 -71 -67 -18 0 -49 -31 -49 -48 0 -7 -3 -12 -7 -12 -19 0 -195 -159
-178 -160 6 0 31 18 55 40 32 29 51 38 65 34 59 -18 82 -16 99 7 9 13 16 31
16 41 0 13 8 18 25 18 25 0 25 0 25 -95 l0 -94 -112 -4 -113 -3 118 -2 117 -2
0 105 0 105 -26 0 c-14 0 -23 4 -19 10 3 6 15 10 26 10 15 0 19 7 19 34 0 19
5 38 10 41 6 4 10 -10 10 -34 l0 -41 130 0 131 0 -3 108 -3 107 -82 3 -81 3
10 35 c14 53 6 64 -47 64 l-45 0 0 60 0 60 120 0 120 0 0 -95 0 -95 -72 -1
c-47 -1 -63 -4 -44 -8 16 -3 51 -4 77 -3 l49 4 0 104 0 104 -130 0 -130 0 0
-70 c0 -40 -4 -70 -10 -70 -6 0 -10 30 -10 70 l0 70 -107 -2 -108 -2 103 -3
102 -4 0 -64 c0 -62 -1 -65 -25 -65 -22 0 -83 -46 -192 -143 l-23 -20 0 43 c0
41 1 42 15 24 14 -19 14 -19 15 1 0 11 7 33 15 49 12 23 13 40 4 94 -14 94
-35 132 -81 151 -37 16 -38 17 -38 69 l0 52 80 0 80 0 0 -69 0 -70 -37 -4 -38
-4 43 -1 42 -2 0 80 0 80 -90 0 -90 0 0 -59 0 -59 -37 -4 c-27 -3 -46 2 -71
18 l-33 23 31 16 c18 9 29 19 26 22 -3 3 -21 -5 -42 -17 l-36 -23 38 -23 c33
-20 35 -24 16 -24 -12 0 -38 -7 -57 -14 l-35 -15 0 75 0 74 79 0 80 0 4 -52 3
-53 2 58 2 57 -91 0 -90 0 2 -83 c1 -65 -2 -89 -16 -110 -12 -19 -16 -42 -14
-84 2 -32 0 -64 -4 -71 -5 -7 -7 -22 -6 -35 1 -12 -4 -35 -11 -52 -10 -26 -9
-35 9 -68 19 -37 20 -40 3 -65 l-17 -26 -6 49 c-4 30 -6 -10 -7 -95 l0 -144
-72 -59 c-61 -49 -77 -57 -101 -52 -22 5 -31 2 -44 -18 -10 -16 -14 -34 -9
-51 5 -23 3 -26 -19 -26 -59 0 -59 -51 2 -140 33 -49 39 -66 49 -153 7 -54 10
-103 6 -108 -3 -5 -49 -10 -102 -11 l-97 -1 105 -7 c58 -4 120 -10 138 -15 19
-4 56 -3 90 4 53 12 63 11 136 -14 87 -29 114 -28 96 5 -10 19 -8 20 31 20 26
0 46 -6 53 -16 9 -11 37 -17 109 -21 84 -5 97 -4 97 10 0 13 -6 14 -31 7 -26
-8 -30 -7 -25 6 3 9 6 18 6 20 0 3 4 3 10 -1 5 -3 372 -5 816 -5 583 0 810 -3
820 -11 9 -7 41 -9 96 -5 46 4 133 11 193 15 l110 7 -95 2 -95 2 6 107 c4 86
11 122 33 175 31 76 32 131 3 136 -10 2 -27 -4 -38 -14 -18 -16 -19 -16 -19 3
0 88 -73 125 -99 50 -11 -29 -12 -30 -26 -11 -12 16 -14 104 -15 576 l0 557
-22 25 c-28 31 -33 32 -310 28z m261 -68 c14 -18 21 -41 21 -70 l0 -44 -1031
0 -1032 0 5 52 c10 96 -88 88 1033 88 l984 0 20 -26z m-1721 -340 c12 -8 22
-24 22 -36 0 -17 -4 -19 -27 -13 -39 9 -94 45 -87 56 9 15 68 10 92 -7z m-112
-2 c-6 -9 -124 -92 -131 -92 -3 0 -5 8 -5 18 0 24 28 62 54 72 27 11 89 12 82
2z m92 -81 c39 -13 47 -20 48 -42 1 -14 4 -37 7 -50 21 -83 -124 -152 -210
-100 -29 18 -31 24 -35 83 -4 71 1 83 48 103 18 7 38 23 44 35 11 21 12 21 31
4 11 -10 41 -25 67 -33z m98 -66 c4 -8 3 -23 0 -32 -6 -15 -8 -15 -16 -3 -13
20 -12 50 0 50 6 0 13 -7 16 -15z m279 -42 l31 -36 -19 -54 c-21 -57 -23 -58
-62 -43 -23 9 -26 14 -20 38 7 33 -6 48 -45 54 -20 2 -25 9 -25 33 0 29 2 30
50 36 28 3 52 7 54 7 2 1 18 -15 36 -35z m-587 -15 c-3 -38 0 -44 30 -64 18
-12 28 -25 23 -29 -14 -8 -40 7 -79 48 -29 31 -34 48 -23 85 1 1 12 2 27 2 23
0 25 -3 22 -42z m391 -55 c-231 -195 -365 -300 -373 -293 -6 6 2 18 20 32 16
13 55 46 87 73 71 61 198 165 252 206 48 36 60 20 14 -18z m79 0 c12 -10 22
-29 24 -42 3 -27 -6 -35 -271 -252 l-133 -110 -28 43 -28 43 22 23 c39 41 371
311 382 312 7 0 21 -8 32 -17z m-227 -66 c-8 -8 -11 -1 -11 24 0 46 14 60 18
19 2 -18 -1 -37 -7 -43z m539 -27 l0 -100 -120 0 -120 0 0 38 c0 27 7 45 21
58 12 10 30 38 40 62 l18 42 81 0 80 0 0 -100z m1110 0 l0 -100 -115 0 -115 0
0 100 0 100 115 0 115 0 0 -100z m-1672 33 c-2 -21 -7 -38 -13 -38 -5 -1 -22
-4 -37 -8 -30 -8 -82 8 -73 22 3 5 1 12 -5 16 -22 13 -8 20 45 21 46 0 55 -2
55 -17 0 -10 4 -20 9 -24 6 -3 7 9 4 30 -4 24 -2 35 6 35 8 0 11 -13 9 -37z
m-66 -59 c36 7 36 6 -36 -53 -27 -22 -53 -38 -58 -35 -5 3 -7 1 -6 -4 2 -5
-13 -22 -31 -38 -24 -20 -33 -24 -28 -11 4 11 2 17 -7 17 -8 0 -16 4 -18 9 -1
5 -10 11 -18 13 -32 7 -39 31 -20 68 26 50 60 78 100 82 28 2 41 -3 63 -26 23
-24 33 -27 59 -22z m348 -54 c0 -12 -7 -20 -16 -20 -18 0 -38 -19 -42 -40 -9
-48 -25 -70 -51 -70 -55 0 -59 16 -12 59 24 22 40 44 37 49 -3 6 1 13 9 16 13
4 14 2 5 -14 -6 -11 -8 -20 -6 -20 3 0 12 12 20 28 9 15 16 20 16 12 0 -12 3
-11 11 3 13 23 29 22 29 -3z m-556 -61 c-2 -4 5 -10 16 -14 11 -3 20 -12 20
-20 0 -7 21 -45 48 -84 38 -57 53 -72 80 -77 18 -3 34 -10 37 -14 7 -11 -34
-60 -50 -60 -18 0 -153 127 -170 161 -8 15 -15 48 -15 73 0 38 3 45 19 43 11
0 18 -4 15 -8z m1936 -42 c0 -5 -6 -7 -12 -4 -7 2 -46 13 -85 23 -40 10 -73
21 -73 25 0 3 38 -3 85 -14 47 -12 85 -25 85 -30z m-11 -23 c8 -2 12 -7 9 -10
-8 -7 -178 37 -178 46 0 7 121 -19 169 -36z m-85 -9 c79 -20 90 -24 84 -31 -6
-5 -169 34 -177 42 -9 9 33 3 93 -11z m-2 -35 c68 -19 94 -30 70 -30 -14 0
-165 41 -171 46 -10 10 35 2 101 -16z m108 -40 c0 -27 -4 -40 -14 -40 -11 0
-11 8 -3 40 6 22 12 40 14 40 2 0 3 -18 3 -40z m-122 11 c72 -19 100 -31 71
-31 -20 0 -160 37 -167 44 -10 11 21 6 96 -13z m-1879 -43 c-46 -38 -67 -50
-73 -40 -3 5 18 28 47 51 58 47 83 37 26 -11z m1857 15 c35 -9 64 -20 64 -24
0 -9 -122 21 -134 32 -14 13 -3 11 70 -8z m-1769 -96 c-18 -15 -43 -36 -57
-46 l-25 -18 -32 43 -32 43 50 40 50 40 39 -37 39 -37 -32 -28z m252 41 c19
-51 42 -228 39 -303 l-3 -80 -38 -3 c-21 -2 -44 1 -51 7 -7 6 -18 63 -26 131
l-13 121 23 24 23 25 -22 0 c-12 0 -19 -4 -16 -10 3 -5 2 -10 -4 -10 -5 0 -13
5 -16 10 -3 6 -18 11 -33 12 -15 0 -5 4 22 7 48 6 50 8 64 49 15 46 38 55 51
20z m-378 -78 c34 -44 64 -80 66 -80 2 0 1 11 -3 24 -5 20 4 31 51 70 47 38
60 44 76 36 10 -6 19 -12 19 -14 0 -2 -29 -28 -65 -57 -48 -39 -65 -59 -66
-78 0 -23 -1 -24 -9 -6 -7 16 -9 12 -15 -23 -4 -23 -12 -45 -16 -48 -5 -3 -9
-16 -9 -30 0 -15 -6 -24 -15 -24 -11 0 -15 12 -15 44 0 37 5 48 27 64 l27 20
-58 76 c-32 42 -63 79 -69 83 -12 7 0 -10 72 -101 24 -31 41 -59 37 -63 -3 -4
-13 2 -20 13 -8 10 -37 48 -65 83 -47 59 -50 65 -34 77 10 7 19 14 20 14 1 0
30 -36 64 -80z m649 -25 l0 -95 -98 0 -97 0 -15 95 -15 95 112 0 113 0 0 -95z
m1390 46 c0 -28 -5 -53 -11 -57 -7 -4 -9 -22 -6 -45 l5 -39 -109 0 -109 0 0
95 0 95 115 0 115 0 0 -49z m112 22 c31 -35 48 -83 47 -130 l0 -48 -27 71
c-15 39 -35 82 -45 95 -10 15 -7 4 8 -28 27 -56 65 -185 65 -220 0 -37 -27
-27 -35 13 -3 20 -22 71 -41 114 -36 83 -42 118 -22 138 17 17 32 15 50 -5z
m98 -134 c0 -116 -3 -150 -12 -147 -7 3 -16 27 -19 54 -3 27 -7 38 -7 25 -1
-13 -4 -22 -6 -20 -9 9 13 210 24 224 7 8 14 15 16 15 2 0 4 -68 4 -151z m44
54 c1 -88 -13 -203 -25 -203 -5 0 -9 66 -9 152 0 142 1 151 17 136 12 -13 17
-36 17 -85z m-2335 0 c62 -81 64 -95 16 -107 -33 -8 -89 16 -110 48 -22 33
-22 92 1 117 9 10 21 19 25 19 4 0 35 -35 68 -77z m310 -183 c7 -87 13 -117
26 -126 11 -8 15 -23 13 -46 -3 -32 -4 -33 -54 -36 -43 -2 -56 1 -82 23 -38
32 -34 65 8 65 19 0 31 6 34 18 7 23 23 138 33 237 7 71 8 75 10 30 2 -27 7
-102 12 -165z m-45 180 c-5 -47 -37 -218 -44 -237 -17 -42 -100 -24 -100 22 0
13 7 54 15 92 13 54 23 75 53 105 37 37 78 47 76 18z m2125 -2 c-7 -13 -21
-48 -31 -78 l-18 -55 3 50 c4 49 30 105 49 105 5 0 3 -10 -3 -22z m-2510 -18
c6 -17 19 -43 31 -57 11 -14 20 -33 20 -42 0 -9 -14 7 -30 35 -16 28 -40 59
-52 70 -19 17 -18 15 4 -16 46 -63 78 -126 78 -153 0 -25 3 -27 43 -27 l43 0
-5 43 -4 42 -12 -34 c-15 -44 -31 -50 -39 -14 -4 15 -9 36 -12 46 -4 11 0 17
11 17 9 0 19 -9 22 -20 l6 -21 14 21 c22 32 33 24 33 -25 0 -39 3 -45 21 -45
19 0 20 -4 15 -34 -5 -25 -3 -35 9 -40 17 -6 20 -51 4 -62 -6 -3 -9 -17 -6
-29 4 -26 -13 -35 -73 -35 -74 0 -76 3 -88 103 -8 66 -9 93 -1 96 6 2 7 6 3
10 -14 10 -84 119 -95 148 -6 18 -6 30 2 39 20 24 46 16 58 -16z m2243 16 c40
-30 86 -196 55 -196 -19 0 -107 140 -107 171 0 41 19 50 52 25z m274 -95 c-14
-33 -26 -68 -26 -76 0 -9 -4 -13 -10 -10 -5 3 -10 15 -10 26 0 26 39 140 53
158 24 29 19 -36 -7 -98z m-316 -116 l0 -95 -115 0 -115 0 0 95 0 95 115 0
115 0 0 -95z m278 -76 c-3 -64 -8 -93 -19 -100 -18 -11 -159 -12 -159 0 0 4
-12 6 -27 3 -25 -5 -27 -3 -14 11 7 9 17 14 22 11 11 -6 11 43 0 108 l-8 47
86 4 c47 1 94 4 105 5 17 2 18 -5 14 -89z m-2209 -5 c25 -5 30 -11 29 -33 -1
-14 -10 -36 -21 -48 -18 -20 -20 -20 -48 -5 -19 11 -27 22 -23 32 4 8 9 25 11
38 6 24 7 25 52 16z m293 -41 c2 -16 -2 -40 -9 -56 -12 -23 -18 -26 -41 -21
-39 10 -38 8 -34 58 l4 46 38 0 c35 0 39 -3 42 -27z"/>
<path d="M557 1703 c-26 -26 12 -80 47 -67 21 8 30 42 16 59 -13 15 -51 20
-63 8z"/>
<path d="M677 1703 c-26 -26 12 -80 47 -67 21 8 30 42 16 59 -13 15 -51 20
-63 8z"/>
<path d="M797 1703 c-26 -26 12 -80 47 -67 21 8 30 42 16 59 -13 15 -51 20
-63 8z"/>
<path d="M735 1290 c-7 -12 32 -33 45 -25 6 4 8 10 5 14 -7 13 -44 20 -50 11z"/>
<path d="M610 1265 c-7 -9 -10 -18 -7 -21 7 -8 47 14 47 26 0 15 -26 12 -40
-5z"/>
<path d="M684 1240 c1 -18 6 -25 19 -23 12 0 16 -4 13 -13 -3 -8 -1 -14 4 -14
6 0 10 10 10 21 0 16 -5 20 -19 16 -15 -3 -21 1 -24 17 -3 16 -4 15 -3 -4z"/>
<path d="M596 980 c-4 -28 -9 -58 -12 -68 -5 -15 -4 -15 5 -1 11 16 27 119 19
119 -3 0 -8 -23 -12 -50z"/>
<path d="M2494 486 c25 -39 46 -74 46 -80 0 -5 3 -7 6 -3 9 8 -45 102 -74 129
-16 15 -8 -1 22 -46z"/>
<path d="M950 1480 l0 -80 755 0 755 0 0 80 0 80 -755 0 -755 0 0 -80z m1500
0 l0 -70 -745 0 -745 0 0 70 0 70 745 0 745 0 0 -70z"/>
<path d="M800 1515 c0 -2 14 -12 31 -21 l31 -16 -31 -19 c-38 -23 -41 -35 -3
-15 56 31 56 32 19 55 -34 21 -47 25 -47 16z"/>
<path d="M1371 1263 c1 -78 4 -97 9 -68 7 37 7 38 9 8 0 -17 4 -38 7 -47 4
-11 1 -16 -10 -16 -14 0 -16 -16 -16 -110 l0 -111 128 3 127 3 0 105 0 105
-45 6 c-25 3 -37 7 -28 7 28 3 60 58 53 92 -14 62 -13 120 1 120 19 0 20 -186
2 -193 -8 -3 -6 -6 5 -6 15 -1 17 10 17 104 l0 105 -130 0 -130 0 1 -107z m98
93 c-11 -10 -89 -15 -89 -6 0 5 21 10 47 10 25 0 44 -2 42 -4z m97 -15 c-3 -4
-29 -11 -58 -15 -29 -4 -69 -9 -88 -13 -19 -3 -32 -2 -28 2 5 5 38 14 75 21
86 15 106 16 99 5z m4 -29 c0 -8 -131 -32 -169 -32 -46 0 54 24 162 39 4 1 7
-3 7 -7z m10 -31 c0 -10 -167 -37 -176 -29 -3 3 28 11 68 18 40 6 78 13 83 15
18 6 25 5 25 -4z m-2 -36 c-3 -3 -34 -10 -69 -16 -35 -5 -72 -12 -81 -15 -10
-3 -18 -1 -18 4 0 5 26 14 58 20 66 11 118 14 110 7z m10 -30 c-8 -8 -171 -36
-176 -30 -7 7 16 14 78 24 66 10 105 13 98 6z m-28 -34 c0 -5 -28 -14 -63 -20
-76 -13 -77 -13 -77 -3 0 5 30 13 68 19 37 5 68 11 70 11 1 1 2 -2 2 -7z m23
-51 l37 0 0 -100 0 -100 -120 0 -120 0 0 101 c0 91 2 100 18 96 9 -3 37 -2 62
3 25 4 54 6 65 4 11 -2 37 -4 58 -4z"/>
<path d="M1650 1266 l0 -105 55 -6 c30 -4 89 -4 130 0 l76 7 -3 101 -3 102
-127 3 -128 3 0 -105z m241 90 c2 -2 3 -45 1 -95 l-3 -91 -115 0 -114 0 0 95
0 95 113 0 c63 0 116 -2 118 -4z"/>
<path d="M1930 1265 l0 -105 125 0 125 0 0 105 0 105 -125 0 -125 0 0 -105z
m240 0 l0 -95 -115 0 -115 0 0 95 0 95 115 0 115 0 0 -95z"/>
<path d="M2207 1363 c-4 -3 -7 -50 -7 -103 l0 -97 38 -7 c48 -8 117 -8 176 0
l46 7 0 103 0 104 -123 0 c-68 0 -127 -3 -130 -7z m243 -98 l0 -95 -115 0
-115 0 0 95 0 95 115 0 115 0 0 -95z"/>
<path d="M1650 1030 l0 -111 128 3 127 3 0 105 0 105 -127 3 -128 3 0 -111z
m241 96 c2 -2 3 -47 1 -100 l-3 -96 -115 0 -114 0 0 100 0 100 113 0 c63 0
116 -2 118 -4z"/>
<path d="M1930 1030 l0 -110 125 0 125 0 0 110 0 110 -125 0 -125 0 0 -110z
m240 0 l0 -100 -115 0 -115 0 0 100 0 100 115 0 115 0 0 -100z"/>
<path d="M2009 1105 c-77 -42 -42 -165 46 -165 90 0 123 125 44 165 -35 18
-56 18 -90 0z m26 -45 l22 -20 18 20 c10 11 23 20 28 20 6 0 0 -11 -13 -25
l-23 -25 23 -25 c28 -30 16 -34 -15 -5 l-22 20 -18 -20 c-10 -11 -23 -20 -28
-20 -6 0 0 11 13 25 l23 25 -23 25 c-28 30 -16 34 15 5z"/>
<path d="M1090 795 l0 -105 130 0 130 0 0 105 0 105 -130 0 -130 0 0 -105z
m250 0 l0 -95 -120 0 -120 0 0 95 0 95 120 0 120 0 0 -95z"/>
<path d="M1370 795 l0 -105 130 0 130 0 0 105 0 105 -130 0 -130 0 0 -105z
m250 0 l0 -95 -120 0 -120 0 0 95 0 95 120 0 120 0 0 -95z"/>
<path d="M1650 796 c0 -100 1 -105 23 -109 l22 -4 -22 -8 c-22 -7 -23 -12 -23
-110 l0 -103 79 -3 c43 -2 101 -2 130 -1 l51 4 -2 51 -2 52 -3 -47 c-4 -45 -6
-48 -31 -48 -18 0 -23 3 -14 9 13 8 42 125 42 168 0 19 -5 23 -32 23 -18 0
-51 4 -73 8 -37 6 -34 7 35 12 l75 5 3 103 3 102 -131 0 -130 0 0 -104z m246
78 c-3 -9 -6 -51 -6 -95 l0 -79 -115 0 -115 0 0 95 0 95 121 0 c106 0 120 -2
115 -16z m-88 -214 c69 -13 72 -14 72 -41 0 -52 -26 -79 -46 -47 -5 7 -3 8 6
3 9 -6 11 -4 5 5 -6 10 -11 9 -22 -5 -12 -17 -18 -14 -14 8 0 4 -3 7 -9 7 -5
0 -10 -4 -10 -10 0 -5 -5 -10 -11 -10 -6 0 -9 7 -5 15 8 23 -7 18 -23 -6 -11
-19 -11 -21 2 -16 8 3 19 1 24 -4 5 -5 27 -10 49 -12 33 -2 40 -5 36 -19 -5
-21 -13 -23 -30 -6 -9 9 -12 8 -12 -5 0 -9 -4 -17 -10 -17 -5 0 -10 7 -10 15
0 8 -4 15 -10 15 -5 0 -10 -4 -10 -10 0 -5 -4 -10 -10 -10 -5 0 -10 8 -10 17
0 15 -2 14 -14 -3 -14 -18 -12 -20 25 -27 21 -5 39 -12 39 -18 0 -11 0 -11
-77 2 -61 11 -63 12 -63 41 0 25 3 29 18 23 14 -5 15 -4 5 6 -18 18 -16 34 2
19 13 -11 19 -10 35 7 19 21 19 21 -3 27 -11 3 -23 3 -26 1 -2 -3 1 -5 7 -5 7
0 12 -7 12 -15 0 -8 -5 -15 -11 -15 -5 0 -8 4 -4 9 3 5 1 12 -5 16 -20 13 -11
36 13 31 15 -3 28 3 35 15 15 23 -5 23 -26 -1 -12 -13 -13 -13 -8 3 3 9 1 17
-5 17 -6 0 -7 5 -4 11 4 6 12 8 19 6 6 -2 44 -10 84 -17z m-129 -17 c-1 -10
-5 -31 -9 -48 -7 -27 -8 -25 -9 18 0 26 4 47 9 47 6 0 9 -8 9 -17z"/>
<path d="M1806 638 c-5 -11 -16 -15 -34 -12 -15 3 -23 2 -19 -3 12 -11 117
-31 117 -21 0 4 -4 8 -10 8 -5 0 -10 8 -10 18 -1 16 -2 16 -15 -1 -13 -18 -14
-17 -17 5 -4 19 -6 20 -12 6z"/>
<path d="M1930 795 l0 -105 125 0 125 0 0 105 0 105 -125 0 -125 0 0 -105z
m240 0 l0 -95 -115 0 -115 0 0 95 0 95 115 0 115 0 0 -95z"/>
<path d="M1090 567 l0 -104 130 -1 130 -1 0 105 0 104 -130 0 -130 0 0 -103z
m250 -2 l0 -95 -57 0 c-49 1 -55 2 -38 12 32 18 44 40 44 78 0 79 -86 118
-146 66 -22 -19 -28 -32 -28 -66 0 -34 6 -47 28 -66 l28 -24 -35 0 -36 0 0 95
0 95 120 0 120 0 0 -95z m-111 -14 c-19 -22 -37 -41 -40 -41 -3 0 -16 11 -28
24 -16 17 -19 26 -10 31 7 5 16 1 21 -9 13 -23 20 -20 47 19 16 23 28 32 34
26 6 -6 -3 -24 -24 -50z"/>
<path d="M1370 565 l0 -105 130 0 130 0 0 105 0 105 -130 0 -130 0 0 -105z
m250 0 l0 -95 -120 0 -120 0 0 95 0 95 120 0 120 0 0 -95z"/>
<path d="M1930 565 l0 -105 125 0 125 0 0 105 0 105 -125 0 -125 0 0 -105z
m240 0 l0 -95 -115 0 -115 0 0 95 0 95 115 0 115 0 0 -95z"/>
<path d="M1092 333 l3 -108 125 0 125 0 3 108 3 107 -131 0 -131 0 3 -107z
m248 2 l0 -95 -120 0 -120 0 0 95 0 95 120 0 120 0 0 -95z"/>
<path d="M1370 335 c0 -117 3 -123 61 -107 l34 10 -42 1 -43 1 0 95 0 95 120
0 120 0 0 -95 0 -95 -42 -1 -43 -1 34 -10 c58 -16 61 -10 61 107 l0 105 -130
0 -130 0 0 -105z"/>
<path d="M1652 333 l3 -108 125 0 125 0 0 105 0 105 -128 3 -128 3 3 -108z
m244 81 c-3 -9 -6 -51 -6 -95 l0 -79 -115 0 -115 0 0 95 0 95 121 0 c106 0
120 -2 115 -16z"/>
<path d="M1930 336 c0 -99 1 -104 23 -110 29 -8 191 -8 211 0 13 5 16 25 16
110 l0 104 -125 0 -125 0 0 -104z m240 -1 l0 -95 -115 0 -115 0 0 95 0 95 115
0 115 0 0 -95z"/>
<path d="M1435 395 c-44 -43 -26 -124 32 -146 37 -14 90 6 108 41 21 41 19 64
-11 99 -34 41 -92 44 -129 6z m115 -27 c-1 -7 -15 -30 -33 -51 l-33 -38 -24
26 c-26 28 -20 47 7 22 17 -14 20 -13 43 19 26 35 40 43 40 22z"/>
</g>
</svg>
